<svg width="35" height="35" viewBox="0 0 35 35" fill="none" xmlns="http://www.w3.org/2000/svg">
<path d="M29.1663 30.625V27.7083C29.1663 26.1612 28.5518 24.6775 27.4578 23.5835C26.3638 22.4896 24.8801 21.875 23.333 21.875H11.6663C10.1192 21.875 8.63551 22.4896 7.54155 23.5835C6.44759 24.6775 5.83301 26.1612 5.83301 27.7083V30.625" stroke="white" stroke-width="4" stroke-linecap="round" stroke-linejoin="round"/>
<path d="M17.5003 4.375C15.9532 4.375 14.4695 4.98958 13.3755 6.08354C12.2816 7.17751 11.667 8.66124 11.667 10.2083C11.667 11.7554 12.2816 13.2392 13.3755 14.3331C14.4695 15.4271 15.9532 16.0417 17.5003 16.0417C19.0474 16.0417 20.5312 15.4271 21.6251 14.3331C22.7191 13.2392 23.3337 11.7554 23.3337 10.2083C23.3337 8.66124 22.7191 7.17751 21.6251 6.08354C20.5312 4.98958 19.0474 4.375 17.5003 4.375Z" stroke="white" stroke-width="4" stroke-linecap="round" stroke-linejoin="round"/>
</svg>
